<svg xmlns="http://www.w3.org/2000/svg" viewBox="0 0 64 64" width="64" height="64">
  <defs>
    <linearGradient id="g" x1="0" y1="0" x2="1" y2="1">
      <stop offset="0" stop-color="#9d6bff"/>
      <stop offset="1" stop-color="#6d4bd6"/>
    </linearGradient>
  </defs>
  <rect width="64" height="64" rx="14" fill="#0b0b12"/>
  <g stroke="url(#g)" stroke-width="2.4" fill="none" opacity="0.9">
    <path d="M16 20 L32 14 L48 20 M16 44 L32 50 L48 44 M16 20 L16 44 M48 20 L48 44 M16 20 L48 44 M48 20 L16 44 M32 14 L32 50"/>
  </g>
  <g fill="url(#g)">
    <circle cx="16" cy="20" r="4.2"/>
    <circle cx="48" cy="20" r="4.2"/>
    <circle cx="16" cy="44" r="4.2"/>
    <circle cx="48" cy="44" r="4.2"/>
    <circle cx="32" cy="14" r="4.6"/>
    <circle cx="32" cy="50" r="4.6"/>
    <circle cx="32" cy="32" r="5.4" fill="#c4a7ff"/>
  </g>
</svg>
