<svg xmlns="http://www.w3.org/2000/svg" viewBox="0 0 1200 630" width="1200" height="630">
  <defs>
    <linearGradient id="bg" x1="0" y1="0" x2="1" y2="1">
      <stop offset="0" stop-color="#0b0b12"/>
      <stop offset="1" stop-color="#171326"/>
    </linearGradient>
    <linearGradient id="ac" x1="0" y1="0" x2="1" y2="1">
      <stop offset="0" stop-color="#c4a7ff"/>
      <stop offset="1" stop-color="#6d4bd6"/>
    </linearGradient>
  </defs>
  <rect width="1200" height="630" fill="url(#bg)"/>
  <g stroke="url(#ac)" stroke-width="1.4" opacity="0.35" fill="none">
    <path d="M820 120 L960 90 L1080 170 L1050 320 L920 380 L800 300 Z"/>
    <path d="M820 120 L1050 320 M960 90 L920 380 M1080 170 L800 300"/>
    <path d="M880 230 L820 120 M880 230 L1080 170 M880 230 L1050 320 M880 230 L920 380 M880 230 L800 300"/>
  </g>
  <g fill="url(#ac)">
    <circle cx="820" cy="120" r="8"/><circle cx="960" cy="90" r="8"/><circle cx="1080" cy="170" r="8"/>
    <circle cx="1050" cy="320" r="8"/><circle cx="920" cy="380" r="8"/><circle cx="800" cy="300" r="8"/>
    <circle cx="880" cy="230" r="11" fill="#c4a7ff"/>
  </g>
  <text x="90" y="250" font-family="Georgia, 'Times New Roman', serif" font-size="72" fill="#ecedf5" font-weight="600">Farzaneh Heidari</text>
  <text x="92" y="315" font-family="Inter, Arial, sans-serif" font-size="34" fill="#a689ff">PhD Student · Université de Montréal · Mila</text>
  <text x="92" y="380" font-family="Inter, Arial, sans-serif" font-size="26" fill="#a9aac2">Explainable AI · Tensor Networks · Shapley Values · AI Safety</text>
  <rect x="92" y="430" width="120" height="6" rx="3" fill="url(#ac)"/>
</svg>
